{
    "asset" : {
        "generator" : "Khronos glTF Blender I/O v3.2.43",
        "version" : "2.0"
    },
    "scene" : 0,
    "scenes" : [
        {
            "name" : "Scene",
            "nodes" : [
                0
            ]
        }
    ],
    "nodes" : [
        {
            "mesh" : 0,
            "name" : "Eiffel",
            "scale" : [
                0.19260568916797638,
                0.19260570406913757,
                0.19260568916797638
            ]
        }
    ],
    "animations" : [
        {
            "channels" : [
                {
                    "sampler" : 0,
                    "target" : {
                        "node" : 0,
                        "path" : "translation"
                    }
                },
                {
                    "sampler" : 1,
                    "target" : {
                        "node" : 0,
                        "path" : "rotation"
                    }
                },
                {
                    "sampler" : 2,
                    "target" : {
                        "node" : 0,
                        "path" : "scale"
                    }
                }
            ],
            "name" : "Eiffel",
            "samplers" : [
                {
                    "input" : 4,
                    "interpolation" : "LINEAR",
                    "output" : 5
                },
                {
                    "input" : 4,
                    "interpolation" : "LINEAR",
                    "output" : 6
                },
                {
                    "input" : 4,
                    "interpolation" : "LINEAR",
                    "output" : 7
                }
            ]
        }
    ],
    "materials" : [
        {
            "doubleSided" : true,
            "name" : "EiffelTowerMat",
            "pbrMetallicRoughness" : {
                "baseColorFactor" : [
                    0.730461061000824,
                    0.2989834249019623,
                    0.09522299468517303,
                    1
                ],
                "metallicFactor" : 0.75,
                "roughnessFactor" : 0.11249999701976776
            }
        }
    ],
    "meshes" : [
        {
            "name" : "Cube.036",
            "primitives" : [
                {
                    "attributes" : {
                        "POSITION" : 0,
                        "NORMAL" : 1,
                        "TEXCOORD_0" : 2
                    },
                    "indices" : 3,
                    "material" : 0
                }
            ]
        }
    ],
    "accessors" : [
        {
            "bufferView" : 0,
            "componentType" : 5126,
            "count" : 4651,
            "max" : [
                5.984776973724365,
                28.361303329467773,
                5.963419437408447
            ],
            "min" : [
                -5.984776973724365,
                -0.08324211835861206,
                -5.963419437408447
            ],
            "type" : "VEC3"
        },
        {
            "bufferView" : 1,
            "componentType" : 5126,
            "count" : 4651,
            "type" : "VEC3"
        },
        {
            "bufferView" : 2,
            "componentType" : 5126,
            "count" : 4651,
            "type" : "VEC2"
        },
        {
            "bufferView" : 3,
            "componentType" : 5123,
            "count" : 19380,
            "type" : "SCALAR"
        },
        {
            "bufferView" : 4,
            "componentType" : 5126,
            "count" : 313,
            "max" : [
                13
            ],
            "min" : [
                0
            ],
            "type" : "SCALAR"
        },
        {
            "bufferView" : 5,
            "componentType" : 5126,
            "count" : 313,
            "type" : "VEC3"
        },
        {
            "bufferView" : 6,
            "componentType" : 5126,
            "count" : 313,
            "type" : "VEC4"
        },
        {
            "bufferView" : 7,
            "componentType" : 5126,
            "count" : 313,
            "type" : "VEC3"
        }
    ],
    "bufferViews" : [
        {
            "buffer" : 0,
            "byteLength" : 55812,
            "byteOffset" : 0
        },
        {
            "buffer" : 0,
            "byteLength" : 55812,
            "byteOffset" : 55812
        },
        {
            "buffer" : 0,
            "byteLength" : 37208,
            "byteOffset" : 111624
        },
        {
            "buffer" : 0,
            "byteLength" : 38760,
            "byteOffset" : 148832
        },
        {
            "buffer" : 0,
            "byteLength" : 1252,
            "byteOffset" : 187592
        },
        {
            "buffer" : 0,
            "byteLength" : 3756,
            "byteOffset" : 188844
        },
        {
            "buffer" : 0,
            "byteLength" : 5008,
            "byteOffset" : 192600
        },
        {
            "buffer" : 0,
            "byteLength" : 3756,
            "byteOffset" : 197608
        }
    ],
    "buffers" : [
        {
            "byteLength" : 201364,
            "uri" : "eiffel_tower.bin"
        }
    ]
}
